{
    "asset" : {
        "generator" : "Khronos glTF Blender I/O v1.6.16",
        "version" : "2.0"
    },
    "scene" : 0,
    "scenes" : [
        {
            "name" : "Scene",
            "nodes" : [
                0
            ]
        }
    ],
    "nodes" : [
        {
            "mesh" : 0,
            "name" : "Plane.067"
        }
    ],
    "materials" : [
        {
            "doubleSided" : true,
            "name" : "whitePass",
            "pbrMetallicRoughness" : {
                "baseColorFactor" : [
                    0.8619236946105957,
                    0.8619236946105957,
                    0.8619236946105957,
                    1
                ],
                "metallicFactor" : 0,
                "roughnessFactor" : 0.6557376980781555
            }
        }
    ],
    "meshes" : [
        {
            "name" : "Plane.067",
            "primitives" : [
                {
                    "attributes" : {
                        "POSITION" : 0,
                        "NORMAL" : 1,
                        "TEXCOORD_0" : 2
                    },
                    "indices" : 3,
                    "material" : 0
                }
            ]
        }
    ],
    "accessors" : [
        {
            "bufferView" : 0,
            "componentType" : 5126,
            "count" : 39714,
            "max" : [
                1.9694900512695312,
                2.144136667251587,
                1.7203441858291626
            ],
            "min" : [
                -1.8030285835266113,
                -0.043835513293743134,
                -2.0055298805236816
            ],
            "type" : "VEC3"
        },
        {
            "bufferView" : 1,
            "componentType" : 5126,
            "count" : 39714,
            "type" : "VEC3"
        },
        {
            "bufferView" : 2,
            "componentType" : 5126,
            "count" : 39714,
            "type" : "VEC2"
        },
        {
            "bufferView" : 3,
            "componentType" : 5123,
            "count" : 170850,
            "type" : "SCALAR"
        }
    ],
    "bufferViews" : [
        {
            "buffer" : 0,
            "byteLength" : 476568,
            "byteOffset" : 0
        },
        {
            "buffer" : 0,
            "byteLength" : 476568,
            "byteOffset" : 476568
        },
        {
            "buffer" : 0,
            "byteLength" : 317712,
            "byteOffset" : 953136
        },
        {
            "buffer" : 0,
            "byteLength" : 341700,
            "byteOffset" : 1270848
        }
    ],
    "buffers" : [
        {
            "byteLength" : 1612548,
            "uri" : "data:application/octet-stream;base64,"
        }
    ]
}
